<?xml version="1.0"?>
<svg width="160" height="50" xmlns="http://www.w3.org/2000/svg" xmlns:svg="http://www.w3.org/2000/svg">
 <mask height="28" id="path-2-outside-1_29_6" maskUnits="userSpaceOnUse" width="104" x="53" y="5">
  <rect fill="white" height="28" id="svg_1" width="104" x="53" y="5"/>
  <path d="m70.64,18.24l5.44,0l0,0.38l-0.19,0c-0.2,0 -0.38,0.07 -0.53,0.22c-0.16,0.13 -0.28,0.3 -0.38,0.5c-0.11,0.2 -0.19,0.42 -0.27,0.64c-0.05,0.23 -0.08,0.43 -0.08,0.61l0,10.19c-0.45,0.17 -0.97,0.33 -1.55,0.45c-0.59,0.13 -1.19,0.23 -1.83,0.31c-0.63,0.1 -1.28,0.17 -1.94,0.22c-0.65,0.05 -1.26,0.08 -1.82,0.08c-2.28,0 -4.27,-0.38 -5.97,-1.14c-1.69,-0.76 -3.1,-1.75 -4.21,-2.96c-1.12,-1.25 -1.95,-2.64 -2.51,-4.18c-0.53,-1.55 -0.8,-3.11 -0.8,-4.68c0,-1.57 0.27,-3.13 0.8,-4.67c0.56,-1.55 1.39,-2.93 2.51,-4.14c1.14,-1.22 2.55,-2.2 4.25,-2.93c1.72,-0.76 3.76,-1.14 6.12,-1.14c0.89,0 1.71,0.08 2.47,0.23c0.76,0.15 1.43,0.29 2.01,0.42c0.33,0.07 0.61,0.15 0.84,0.22c0.25,0.05 0.47,0.08 0.65,0.08l0.34,0l0,4.03l-0.38,0c-0.15,-0.79 -0.46,-1.42 -0.91,-1.9c-0.43,-0.48 -0.94,-0.85 -1.52,-1.1c-0.59,-0.26 -1.21,-0.42 -1.87,-0.5c-0.63,-0.1 -1.22,-0.15 -1.78,-0.15c-1.9,0 -3.55,0.34 -4.94,1.03c-1.4,0.65 -2.54,1.52 -3.42,2.58c-0.89,1.06 -1.55,2.27 -1.98,3.61c-0.43,1.32 -0.64,2.63 -0.64,3.95c0,1.47 0.27,2.93 0.83,4.37c0.56,1.42 1.34,2.7 2.36,3.84c1.01,1.11 2.23,2.03 3.65,2.74c1.44,0.68 3.04,1.02 4.78,1.02c0.49,0 1.08,-0.05 1.79,-0.15c0.71,-0.13 1.42,-0.39 2.13,-0.8l0,-8.93c0,-0.18 -0.03,-0.38 -0.08,-0.61c-0.05,-0.22 -0.14,-0.44 -0.26,-0.64c-0.11,-0.2 -0.23,-0.37 -0.38,-0.5c-0.16,-0.15 -0.33,-0.22 -0.54,-0.22l-0.19,0l0,-0.38z" id="svg_2"/>
  <path d="m85.59,31.08l0.19,0l0,0.38l-5.36,0l0,-0.38l0.19,0c0.18,0 0.34,-0.08 0.49,-0.23c0.15,-0.15 0.28,-0.33 0.38,-0.53c0.13,-0.2 0.22,-0.42 0.27,-0.65c0.05,-0.25 0.07,-0.48 0.07,-0.68l0,-20.25c0,-0.18 -0.02,-0.38 -0.07,-0.61c-0.05,-0.23 -0.14,-0.45 -0.27,-0.65c-0.1,-0.2 -0.23,-0.37 -0.38,-0.49c-0.15,-0.15 -0.31,-0.23 -0.49,-0.23l-0.19,0l0,-0.38l6.61,0c2.53,0 4.48,0.49 5.85,1.48c1.4,0.99 2.09,2.45 2.09,4.37c0,0.96 -0.16,1.81 -0.49,2.55c-0.31,0.71 -0.72,1.33 -1.26,1.86c-0.53,0.51 -1.16,0.92 -1.9,1.25c-0.7,0.31 -1.46,0.54 -2.28,0.69l2.74,4.18c0.66,1.01 1.33,2.01 2.01,3c0.69,0.96 1.36,1.96 2.02,3c0.18,0.26 0.37,0.52 0.57,0.8c0.23,0.28 0.45,0.53 0.68,0.76c0.26,0.23 0.51,0.42 0.76,0.57c0.28,0.13 0.56,0.19 0.84,0.19l0,0.38l-1.64,0c-1.01,0 -1.84,-0.24 -2.5,-0.72c-0.64,-0.51 -1.17,-1.09 -1.6,-1.75c-1.14,-1.67 -2.28,-3.37 -3.42,-5.09c-1.11,-1.72 -2.23,-3.42 -3.34,-5.09c-0.28,-0.03 -0.59,-0.05 -0.92,-0.08c-0.3,-0.05 -0.59,-0.1 -0.87,-0.15l0,10.41c0,0.2 0.03,0.43 0.08,0.68c0.05,0.23 0.12,0.45 0.22,0.65c0.13,0.2 0.26,0.38 0.38,0.53c0.16,0.15 0.33,0.23 0.54,0.23zm-1.22,-23.41l0,9.65l0.19,0c0.2,0.03 0.52,0.05 0.95,0.08c0.46,0 1.01,0 1.67,0c0.53,0 1.09,-0.08 1.67,-0.23c0.61,-0.18 1.17,-0.45 1.68,-0.83c0.53,-0.41 0.96,-0.93 1.29,-1.56c0.35,-0.64 0.53,-1.43 0.53,-2.4c0,-0.96 -0.19,-1.74 -0.57,-2.35c-0.35,-0.61 -0.86,-1.09 -1.52,-1.45c-0.63,-0.35 -1.41,-0.59 -2.32,-0.72c-0.91,-0.12 -1.91,-0.19 -3,-0.19l-0.57,0z" id="svg_3"/>
  <path d="m102.23,6.38l5.44,0l0,0.38l-0.19,0c-0.18,0 -0.35,0.08 -0.5,0.23c-0.15,0.12 -0.28,0.29 -0.38,0.49c-0.1,0.18 -0.19,0.39 -0.26,0.65c-0.06,0.23 -0.08,0.43 -0.08,0.61l0,20.25c0,0.2 0.02,0.43 0.08,0.68c0.05,0.23 0.12,0.45 0.22,0.65c0.13,0.2 0.26,0.38 0.38,0.53c0.16,0.15 0.33,0.23 0.54,0.23l0.19,0l0,0.38l-5.44,0l0,-0.38l0.19,0c0.21,0 0.38,-0.06 0.53,-0.19c0.16,-0.15 0.28,-0.33 0.38,-0.53c0.13,-0.23 0.22,-0.46 0.27,-0.69c0.05,-0.25 0.08,-0.48 0.08,-0.68l0,-20.25c0,-0.18 -0.03,-0.38 -0.08,-0.61c-0.05,-0.23 -0.14,-0.45 -0.27,-0.65c-0.1,-0.2 -0.22,-0.37 -0.38,-0.49c-0.15,-0.15 -0.32,-0.23 -0.53,-0.23l-0.19,0l0,-0.38z" id="svg_4"/>
  <path d="m112.46,31.08l0.19,0c0.2,0 0.38,-0.06 0.53,-0.19c0.15,-0.15 0.28,-0.33 0.38,-0.53c0.13,-0.2 0.22,-0.42 0.27,-0.65c0.07,-0.23 0.11,-0.44 0.11,-0.64l0,-20.33c0,-0.18 -0.04,-0.38 -0.11,-0.61c-0.05,-0.23 -0.14,-0.45 -0.27,-0.65c-0.1,-0.2 -0.23,-0.37 -0.38,-0.49c-0.15,-0.15 -0.33,-0.23 -0.53,-0.23l-0.19,0l0,-0.38l5.47,0l0,0.38l-0.19,0c-0.2,0 -0.38,0.08 -0.53,0.23c-0.15,0.12 -0.28,0.29 -0.38,0.49c-0.1,0.2 -0.19,0.42 -0.27,0.65c-0.05,0.23 -0.07,0.43 -0.07,0.61l0,21.31l8.32,0c0.48,0 0.9,-0.11 1.25,-0.34c0.36,-0.23 0.65,-0.5 0.88,-0.83c0.25,-0.36 0.43,-0.73 0.53,-1.11c0.13,-0.4 0.19,-0.77 0.19,-1.1l0.38,0l0,4.79l-15.58,0l0,-0.38z" id="svg_5"/>
  <path d="m131.26,31.08l0.19,0c0.21,0 0.38,-0.06 0.54,-0.19c0.15,-0.15 0.27,-0.33 0.38,-0.53c0.12,-0.2 0.21,-0.42 0.26,-0.65c0.08,-0.23 0.12,-0.44 0.12,-0.64l0,-20.33c0,-0.18 -0.04,-0.38 -0.12,-0.61c-0.05,-0.23 -0.14,-0.45 -0.26,-0.65c-0.11,-0.2 -0.23,-0.37 -0.38,-0.49c-0.16,-0.15 -0.33,-0.23 -0.54,-0.23l-0.19,0l0,-0.38l5.48,0l0,0.38l-0.19,0c-0.21,0 -0.38,0.08 -0.54,0.23c-0.15,0.12 -0.27,0.29 -0.38,0.49c-0.1,0.2 -0.19,0.42 -0.26,0.65c-0.05,0.23 -0.08,0.43 -0.08,0.61l0,21.31l8.32,0c0.49,0 0.9,-0.11 1.26,-0.34c0.35,-0.23 0.64,-0.5 0.87,-0.83c0.26,-0.36 0.43,-0.73 0.53,-1.11c0.13,-0.4 0.19,-0.77 0.19,-1.1l0.38,0l0,4.79l-15.58,0l0,-0.38z" id="svg_6"/>
  <path d="m150.22,6.38l5.43,0l0,0.38l-0.19,0c-0.17,0 -0.34,0.08 -0.49,0.23c-0.15,0.12 -0.28,0.29 -0.38,0.49c-0.1,0.18 -0.19,0.39 -0.27,0.65c-0.05,0.23 -0.07,0.43 -0.07,0.61l0,20.25c0,0.2 0.02,0.43 0.07,0.68c0.06,0.23 0.13,0.45 0.23,0.65c0.13,0.2 0.26,0.38 0.38,0.53c0.15,0.15 0.33,0.23 0.53,0.23l0.19,0l0,0.38l-5.43,0l0,-0.38l0.19,0c0.2,0 0.38,-0.06 0.53,-0.19c0.15,-0.15 0.28,-0.33 0.38,-0.53c0.13,-0.23 0.22,-0.46 0.27,-0.69c0.05,-0.25 0.07,-0.48 0.07,-0.68l0,-20.25c0,-0.18 -0.02,-0.38 -0.07,-0.61c-0.05,-0.23 -0.14,-0.45 -0.27,-0.65c-0.1,-0.2 -0.23,-0.37 -0.38,-0.49c-0.15,-0.15 -0.33,-0.23 -0.53,-0.23l-0.19,0l0,-0.38z" id="svg_7"/>
 </mask>
 <g class="layer">
  <title>Layer 1</title>
  <path d="m54,44.46l0,-7.7l2.65,0c0.61,0 1.11,0.1 1.5,0.31c0.39,0.2 0.69,0.48 0.88,0.83c0.19,0.35 0.28,0.73 0.28,1.16c0,0.48 -0.13,0.91 -0.38,1.3c-0.25,0.39 -0.64,0.66 -1.18,0.83l1.64,3.27l-1.35,0l-1.5,-3.1l-1.37,0l0,3.1l-1.17,0zm1.17,-3.98l1.42,0c0.52,0 0.91,-0.13 1.15,-0.39c0.25,-0.25 0.37,-0.59 0.37,-1c0,-0.41 -0.12,-0.74 -0.36,-0.98c-0.24,-0.25 -0.63,-0.37 -1.18,-0.37l-1.4,0l0,2.74z" fill="#E4C590" id="svg_8"/>
  <path d="m64.65,44.46l0,-7.7l4.9,0l0,0.95l-3.73,0l0,2.39l3.4,0l0,0.93l-3.4,0l0,2.48l3.73,0l0,0.95l-4.9,0z" fill="#E4C590" id="svg_9"/>
  <path d="m77.44,44.59c-0.57,0 -1.06,-0.1 -1.49,-0.29c-0.42,-0.2 -0.76,-0.49 -1,-0.85c-0.23,-0.37 -0.35,-0.8 -0.36,-1.31l1.23,0c0.01,0.41 0.15,0.76 0.43,1.04c0.28,0.29 0.67,0.43 1.18,0.43c0.44,0 0.79,-0.1 1.04,-0.32c0.26,-0.22 0.39,-0.49 0.39,-0.83c0,-0.27 -0.07,-0.49 -0.19,-0.66c-0.12,-0.17 -0.28,-0.31 -0.5,-0.42c-0.2,-0.11 -0.44,-0.21 -0.71,-0.3c-0.27,-0.09 -0.56,-0.18 -0.86,-0.28c-0.59,-0.2 -1.04,-0.46 -1.34,-0.77c-0.29,-0.32 -0.44,-0.73 -0.44,-1.25c-0.01,-0.43 0.09,-0.81 0.3,-1.13c0.21,-0.32 0.5,-0.57 0.88,-0.75c0.38,-0.18 0.82,-0.27 1.33,-0.27c0.5,0 0.93,0.09 1.31,0.27c0.38,0.19 0.67,0.44 0.89,0.77c0.21,0.33 0.32,0.7 0.33,1.14l-1.23,0c0,-0.2 -0.06,-0.39 -0.16,-0.57c-0.1,-0.18 -0.25,-0.33 -0.45,-0.45c-0.2,-0.11 -0.44,-0.17 -0.73,-0.17c-0.36,-0.01 -0.67,0.08 -0.91,0.27c-0.23,0.19 -0.35,0.46 -0.35,0.8c0,0.3 0.09,0.53 0.26,0.69c0.18,0.16 0.42,0.29 0.73,0.4c0.31,0.11 0.66,0.23 1.06,0.37c0.38,0.12 0.72,0.27 1.02,0.45c0.3,0.17 0.54,0.41 0.71,0.69c0.19,0.29 0.28,0.65 0.28,1.09c0,0.39 -0.1,0.75 -0.3,1.09c-0.2,0.33 -0.49,0.6 -0.89,0.81c-0.4,0.21 -0.88,0.31 -1.46,0.31z" fill="#E4C590" id="svg_10"/>
  <path d="m86.99,44.46l0,-6.75l-2.28,0l0,-0.95l5.71,0l0,0.95l-2.27,0l0,6.75l-1.16,0z" fill="#E4C590" id="svg_11"/>
  <path d="m94.14,44.46l2.84,-7.7l1.27,0l2.82,7.7l-1.23,0l-0.66,-1.88l-3.15,0l-0.66,1.88l-1.23,0zm2.22,-2.8l2.49,0l-1.25,-3.51l-1.24,3.51z" fill="#E4C590" id="svg_12"/>
  <path d="m108.65,44.59c-0.55,0 -1.05,-0.1 -1.49,-0.32c-0.44,-0.22 -0.8,-0.55 -1.06,-1c-0.26,-0.45 -0.39,-1.01 -0.39,-1.7l0,-4.81l1.17,0l0,4.82c0,0.67 0.16,1.17 0.48,1.48c0.33,0.32 0.76,0.48 1.31,0.48c0.55,0 0.98,-0.16 1.3,-0.48c0.32,-0.31 0.48,-0.81 0.48,-1.48l0,-4.82l1.17,0l0,4.81c0,0.69 -0.14,1.25 -0.41,1.7c-0.26,0.45 -0.62,0.78 -1.07,1c-0.45,0.22 -0.95,0.32 -1.49,0.32z" fill="#E4C590" id="svg_13"/>
  <path d="m117.08,44.46l0,-7.7l2.65,0c0.61,0 1.1,0.1 1.49,0.31c0.4,0.2 0.69,0.48 0.88,0.83c0.19,0.35 0.29,0.73 0.29,1.16c0,0.48 -0.13,0.91 -0.39,1.3c-0.25,0.39 -0.64,0.66 -1.17,0.83l1.64,3.27l-1.36,0l-1.49,-3.1l-1.38,0l0,3.1l-1.16,0zm1.16,-3.98l1.42,0c0.53,0 0.91,-0.13 1.16,-0.39c0.25,-0.25 0.37,-0.59 0.37,-1c0,-0.41 -0.12,-0.74 -0.36,-0.98c-0.25,-0.25 -0.64,-0.37 -1.18,-0.37l-1.41,0l0,2.74z" fill="#E4C590" id="svg_14"/>
  <path d="m127.23,44.46l2.84,-7.7l1.28,0l2.81,7.7l-1.23,0l-0.66,-1.88l-3.14,0l-0.66,1.88l-1.24,0zm2.23,-2.8l2.48,0l-1.24,-3.51l-1.24,3.51z" fill="#E4C590" id="svg_15"/>
  <path d="m139.2,44.46l0,-7.7l1.16,0l3.86,5.8l0,-5.8l1.17,0l0,7.7l-1.17,0l-3.86,-5.8l0,5.8l-1.16,0z" fill="#E4C590" id="svg_16"/>
  <path d="m152.72,44.46l0,-6.75l-2.28,0l0,-0.95l5.71,0l0,0.95l-2.27,0l0,6.75l-1.16,0z" fill="#E4C590" id="svg_17"/>
  <path d="m190.09,29.58l0.19,0l0,0.38l-5.36,0l0,-0.38l0.19,0c0.18,0 0.34,-0.08 0.49,-0.23c0.15,-0.15 0.28,-0.33 0.38,-0.53c0.13,-0.2 0.22,-0.42 0.27,-0.65c0.05,-0.25 0.07,-0.48 0.07,-0.68l0,-20.25c0,-0.18 -0.02,-0.38 -0.07,-0.61c-0.05,-0.23 -0.14,-0.45 -0.27,-0.65c-0.1,-0.2 -0.23,-0.37 -0.38,-0.49c-0.15,-0.15 -0.31,-0.23 -0.49,-0.23l-0.19,0l0,-0.38l6.61,0c2.53,0 4.48,0.49 5.85,1.48c1.4,0.99 2.09,2.45 2.09,4.37c0,0.96 -0.16,1.81 -0.49,2.55c-0.31,0.71 -0.72,1.33 -1.26,1.86c-0.53,0.51 -1.16,0.92 -1.9,1.25c-0.7,0.31 -1.46,0.54 -2.28,0.69l2.74,4.18c0.66,1.01 1.33,2.01 2.01,3c0.69,0.96 1.36,1.96 2.02,3c0.18,0.26 0.37,0.52 0.57,0.8c0.23,0.28 0.45,0.53 0.68,0.76c0.26,0.23 0.51,0.42 0.76,0.57c0.28,0.13 0.56,0.19 0.84,0.19l0,0.38l-1.64,0c-1.01,0 -1.84,-0.24 -2.5,-0.72c-0.64,-0.51 -1.17,-1.09 -1.6,-1.75c-1.14,-1.67 -2.28,-3.37 -3.42,-5.09c-1.11,-1.72 -2.23,-3.42 -3.34,-5.09c-0.28,-0.03 -0.59,-0.05 -0.92,-0.08c-0.3,-0.05 -0.59,-0.1 -0.87,-0.15l0,10.41c0,0.2 0.03,0.43 0.08,0.68c0.05,0.23 0.12,0.45 0.22,0.65c0.13,0.2 0.26,0.38 0.38,0.53c0.16,0.15 0.33,0.23 0.54,0.23zm-1.22,-23.41l0,9.65l0.19,0c0.2,0.03 0.52,0.05 0.95,0.08c0.46,0 1.01,0 1.67,0c0.53,0 1.09,-0.08 1.67,-0.23c0.61,-0.18 1.17,-0.45 1.68,-0.83c0.53,-0.41 0.96,-0.93 1.29,-1.56c0.35,-0.64 0.53,-1.43 0.53,-2.4c0,-0.96 -0.19,-1.74 -0.57,-2.35c-0.35,-0.61 -0.86,-1.09 -1.52,-1.45c-0.63,-0.35 -1.41,-0.59 -2.32,-0.72c-0.91,-0.12 -1.91,-0.19 -3,-0.19l-0.57,0z" id="svg_25" mask="url(#path-2-outside-1_29_6)" stroke="white"/>
  <path clip-rule="evenodd" d="m32.51,42.6c-2.83,1.53 -6.07,2.4 -9.51,2.4c-11.05,0 -20,-8.95 -20,-20c0,-11.05 8.95,-20 20,-20c3.05,0 5.94,0.68 8.53,1.91c-0.16,0.21 -0.32,0.43 -0.47,0.67c-0.69,1.11 -1.23,2.45 -1.59,3.88c-1.96,-0.93 -4.15,-1.46 -6.47,-1.46c-8.28,0 -15,6.72 -15,15c0,8.28 6.72,15 15,15c4.29,0 8.16,-1.8 10.9,-4.69c-0.3,1.11 -0.71,2.29 -1.26,3.62c-0.41,0.88 -0.53,1.52 -0.53,2.53c0,0.41 0.15,0.79 0.4,1.14zm-3.5,-27.99c-0.15,3.67 1.02,7.26 4.15,8.65c0.97,0.87 1.58,1.95 1.58,3.36c0,0.3 0,0.6 0,0.89c-1.16,5.42 -5.97,9.49 -11.74,9.49c-6.63,0 -12,-5.37 -12,-12c0,-6.63 5.37,-12 12,-12c2.19,0 4.25,0.59 6.01,1.61z" fill="#E4C590" fill-rule="evenodd" id="svg_30"/>
  <path d="m41.76,22.88c5.04,-2.32 4.82,-9.73 2.05,-14.34c-2.81,-4.69 -7.02,-4.75 -9.87,0c-2.75,4.59 -3,12.01 2.05,14.34c0.93,0.86 1.64,2.55 1.64,3.95c0,4.19 0.25,7.48 -1.93,12.31c-0.39,0.87 -0.57,1.52 -0.57,2.07c0,2.09 1.68,3.79 3.75,3.79c2.06,0 3.75,-1.7 3.75,-3.79c0,-0.55 -0.19,-1.2 -0.58,-2.07c-2.21,-4.9 -1.92,-8.42 -1.92,-12.31c0,-1.4 0.7,-3.09 1.63,-3.95z" fill="#E4C590" id="svg_31"/>
  <text fill="#ffffff" font-family="Serif" font-size="24" id="svg_32" stroke="white" stroke-width="0" style="cursor: move;" text-anchor="middle" transform="matrix(0.824204 0 0 0.78534 7.66173 1.16818)" x="114.46" xml:space="preserve" y="32.34">Cache Coffee</text>
 </g>
</svg>